PathFileType	4	(X/Y/Z)	/Users/itak/Documents/Research/Walk-IL/dataset/trc/00516_00183.trc
DataRate	CameraRate	NumFrames	NumMarkers	Units	OrigDataRate	OrigDataStartFrame	OrigNumFrames
100.000000	100.000000	4	54	mm	100.000000	0	437
Frame#	Time	RPSI			LPSI			L3			STRN			T10			C7			CLAV			RBAK			LBAK			LSHO			LUPA			LAEL			LAOL			LWTS			LWPS			LFRA			LHPS			LHTS			RSHO			RUPA			RAEL			RAOL			RWTS			RWPS			RFRA			RIFD			RHTS			RHPS			RBHD			LFHD			RFHD			LBHD			LHIP			RHIP			RASI			LASI			LKNE			LTHI			LANK			LTIP			LTOE			LMT1			LMT5			LHEE			RKNE			RTHI			RANK			RTIP			RTOE			RMT1			RMT5			RHEE			LIFD			*53			
		X1	Y1	Z1	X2	Y2	Z2	X3	Y3	Z3	X4	Y4	Z4	X5	Y5	Z5	X6	Y6	Z6	X7	Y7	Z7	X8	Y8	Z8	X9	Y9	Z9	X10	Y10	Z10	X11	Y11	Z11	X12	Y12	Z12	X13	Y13	Z13	X14	Y14	Z14	X15	Y15	Z15	X16	Y16	Z16	X17	Y17	Z17	X18	Y18	Z18	X19	Y19	Z19	X20	Y20	Z20	X21	Y21	Z21	X22	Y22	Z22	X23	Y23	Z23	X24	Y24	Z24	X25	Y25	Z25	X26	Y26	Z26	X27	Y27	Z27	X28	Y28	Z28	X29	Y29	Z29	X30	Y30	Z30	X31	Y31	Z31	X32	Y32	Z32	X33	Y33	Z33	X34	Y34	Z34	X35	Y35	Z35	X36	Y36	Z36	X37	Y37	Z37	X38	Y38	Z38	X39	Y39	Z39	X40	Y40	Z40	X41	Y41	Z41	X42	Y42	Z42	X43	Y43	Z43	X44	Y44	Z44	X45	Y45	Z45	X46	Y46	Z46	X47	Y47	Z47	X48	Y48	Z48	X49	Y49	Z49	X50	Y50	Z50	X51	Y51	Z51	X52	Y52	Z52	X53	Y53	Z53	X54	Y54	Z54	

1	0	-1020.689453125	969.2242431640625	-335.0244750976562	-991.3421020507812	970.9191284179688	-455.3941345214844	-1024.250854492188	1026.521850585938	-399.8546142578125	-805.0458374023438	1200.411743164062	-366.6611633300781	-1039.6064453125	1134.010131835938	-398.0217895507812	-994.899658203125	1364.365234375	-389.7151489257812	-841.870361328125	1295.40185546875	-372.4633178710938	-1051.320678710938	1241.38330078125	-309.8585815429688	-1008.274108886719	1308.206665039062	-478.0675048828125	-909.2537841796875	1360.064453125	-541.2156372070312	-914.3594970703125	1233.033447265625	-600.8402709960938	-899.2654418945312	1023.084411621094	-625.5748291015625	-972.46630859375	1013.580322265625	-557.8726196289062	-807.7603759765625	837.7366943359375	-582.7036743164062	-884.491943359375	798.547607421875	-622.9338989257812	-879.2948608398438	937.88818359375	-626.7318725585938	-857.4615478515625	746.73583984375	-618.4603271484375	-795.6229248046875	760.6690673828125	-601.2274169921875	-960.92919921875	1361.749267578125	-235.7397766113281	-983.3397827148438	1293.466064453125	-181.3343505859375	-972.7737426757812	1023.995300292969	-140.6071472167969	-1018.110473632812	1005.648803710938	-185.5797576904297	-862.7862548828125	823.9146118164062	-166.0146179199219	-942.25390625	796.1810913085938	-127.9259490966797	-968.39697265625	969.3882446289062	-135.2591094970703	-860.21484375	664.7164306640625	-164.7594757080078	-849.9879150390625	731.158935546875	-142.0408630371094	-919.1075439453125	727.3826904296875	-126.5448303222656	-961.98046875	1527.204833984375	-305.3392639160156	-802.772705078125	1579.347412109375	-416.0566101074219	-833.9222412109375	1576.531982421875	-292.6318664550781	-937.8937377929688	1527.151000976562	-463.3533325195312	-860.8757934570312	894.6477661132812	-561.6411743164062	-949.6033325195312	867.085205078125	-193.3865966796875	-834.8680419921875	908.1892700195312	-234.7278442382812	-784.2545776367188	924.0311889648438	-471.9660339355469	-887.5449829101562	474.5942993164062	-530.7354736328125	-858.1884155273438	631.256591796875	-546.002197265625	-995.7835083007812	49.85176849365234	-538.6994018554688	-929.3428955078125	331.702392578125	-541.6024169921875	-809.9786987304688	38.47182464599609	-447.2268676757812	-891.2435302734375	43.41301727294922	-427.5439147949219	-885.1749877929688	45.95476150512695	-528.7803955078125	-1053.326293945312	43.7487907409668	-484.8479614257812	-971.8515014648438	481.0465393066406	-224.2092132568359	-933.0115356445312	738.5300903320312	-183.5180511474609	-1014.739929199219	48.9720344543457	-272.6025390625	-974.6951904296875	340.7139282226562	-239.9513854980469	-809.9419555664062	43.34420394897461	-294.33056640625	-871.49462890625	50.45313262939453	-336.25732421875	-902.9928588867188	46.00227355957031	-245.2721252441406	-1060.182006835938	40.60174179077148	-327.0231323242188	-802.4880981445312	679.6768188476562	-573.415283203125	nan	nan	nan	
2	0.01	-1020.751708984375	969.2265625	-335.2994384765625	-991.412109375	970.8862915039062	-455.6027221679688	-1024.302856445312	1026.53076171875	-400.1008605957031	-805.1107788085938	1200.480590820312	-366.93798828125	-1039.639038085938	1134.01416015625	-398.2866516113281	-994.94287109375	1364.384765625	-390.0146484375	-841.9647216796875	1295.42822265625	-372.7301025390625	-1051.376098632812	1241.397216796875	-310.1568603515625	-1008.286926269531	1308.21630859375	-478.3985900878906	-909.3178100585938	1360.063842773438	-541.469482421875	-914.3307495117188	1232.9951171875	-601.0767822265625	-899.1586303710938	1023.105041503906	-625.8348388671875	-972.4112548828125	1013.56982421875	-558.1734619140625	-807.562744140625	837.8201904296875	-582.8704223632812	-884.3366088867188	798.5983276367188	-623.2369995117188	-879.158447265625	937.9073486328125	-626.9482421875	-857.3529663085938	746.8348999023438	-618.868896484375	-795.5852661132812	760.7186279296875	-601.566650390625	-961.0139770507812	1361.775146484375	-236.0296173095703	-983.409423828125	1293.496704101562	-181.5784912109375	-972.865234375	1024.015991210938	-140.8681335449219	-1018.124145507812	1005.680786132812	-185.9080200195312	-862.8338623046875	823.9403076171875	-166.2998199462891	-942.3455200195312	796.2088012695312	-128.2098846435547	-968.4228515625	969.405517578125	-135.5624084472656	-860.3065185546875	664.7326049804688	-165.0994262695312	-850.1043701171875	731.1640625	-142.2900238037109	-919.166748046875	727.4056396484375	-126.8731155395508	-962.0819091796875	1527.229858398438	-305.6124572753906	-802.93408203125	1579.387817382812	-416.3537292480469	-834.0130004882812	1576.556274414062	-292.900146484375	-937.9598388671875	1527.14111328125	-463.6086120605469	-860.8560180664062	894.5718383789062	-561.7687377929688	-949.9395751953125	867.3200073242188	-193.8702545166016	-834.9105834960938	908.2677612304688	-234.9817199707031	-784.2261962890625	924.0156860351562	-472.1700744628906	-887.5191650390625	474.6127319335938	-530.890625	-858.2277221679688	631.1834716796875	-546.209228515625	-995.7777099609375	49.83378982543945	-538.7139892578125	-929.3241577148438	331.650146484375	-541.712890625	-809.9752807617188	38.47982788085938	-447.22314453125	-891.25390625	43.40558242797852	-427.5430603027344	-885.1774291992188	45.94785690307617	-528.779296875	-1053.342651367188	43.73405456542969	-484.8448181152344	-971.687255859375	481.049560546875	-224.3448028564453	-932.9942016601562	738.573974609375	-183.7282257080078	-1014.671142578125	48.98233032226562	-272.6949157714844	-974.4556884765625	340.7195129394531	-240.1152038574219	-809.8999633789062	43.31244659423828	-294.3525085449219	-871.4361572265625	50.39811325073242	-336.3296813964844	-902.966796875	46.02475738525391	-245.3359527587891	-1060.185546875	40.6272087097168	-327.043701171875	-802.3169555664062	679.7215576171875	-573.8104858398438	nan	nan	nan	
3	0.02	-1020.826843261719	969.2291259765625	-335.6349487304688	-991.4866333007812	970.8488159179688	-455.8785400390625	-1024.359252929688	1026.54052734375	-400.4107055664062	-805.1804809570312	1200.566650390625	-367.2847900390625	-1039.667846679688	1134.020263671875	-398.6346130371094	-995.0057373046875	1364.40576171875	-390.3828735351562	-842.0758666992188	1295.463256835938	-373.0666809082031	-1051.436157226562	1241.411987304688	-310.534423828125	-1008.314514160156	1308.227783203125	-478.7907104492188	-909.3970336914062	1360.069702148438	-541.78955078125	-914.3120727539062	1232.960205078125	-601.379150390625	-899.0415649414062	1023.130126953125	-626.1608276367188	-972.3441772460938	1013.556213378906	-558.5450439453125	-807.3325805664062	837.9176635742188	-583.0896606445312	-884.1361694335938	798.6704711914062	-623.6256713867188	-879.0059204101562	937.9266357421875	-627.223388671875	-857.1978759765625	746.9552001953125	-619.3734741210938	-795.5252075195312	760.787353515625	-601.9949340820312	-961.1211547851562	1361.804321289062	-236.3905029296875	-983.4987182617188	1293.531616210938	-181.8877105712891	-972.9703979492188	1024.043823242188	-141.2005615234375	-1018.155639648438	1005.716918945312	-186.3047790527344	-862.89208984375	823.968994140625	-166.6558074951172	-942.4478759765625	796.2398681640625	-128.5705108642578	-968.4658203125	969.4284057617188	-135.9367828369141	-860.42138671875	664.7503051757812	-165.5113372802734	-850.2320556640625	731.1758422851562	-142.6139831542969	-919.2455444335938	727.4301147460938	-127.2772674560547	-962.20751953125	1527.25634765625	-305.9527282714844	-803.127685546875	1579.436645507812	-416.7265319824219	-834.128662109375	1576.587890625	-293.2396850585938	-938.0521240234375	1527.130615234375	-463.9267578125	-860.8160400390625	894.4942626953125	-561.92919921875	-950.3516845703125	867.625	-194.4465179443359	-834.9598999023438	908.3627319335938	-235.2938842773438	-784.199951171875	924.0013427734375	-472.4468688964844	-887.4987182617188	474.6341247558594	-531.0858764648438	-858.2747802734375	631.0894165039062	-546.4637451171875	-995.7688598632812	49.81466674804688	-538.7322387695312	-929.3191528320312	331.5758666992188	-541.8619384765625	-809.9736328125	38.48736953735352	-447.2193603515625	-891.2640991210938	43.4004020690918	-427.5445251464844	-885.181884765625	45.9358024597168	-528.7826538085938	-1053.362670898438	43.71366882324219	-484.8484497070312	-971.4490966796875	481.0497131347656	-224.5200042724609	-932.946044921875	738.62158203125	-184.0202331542969	-1014.593994140625	49.00115966796875	-272.8041076660156	-974.1386108398438	340.7208251953125	-240.3298645019531	-809.8509521484375	43.27013778686523	-294.3875427246094	-871.364990234375	50.32378005981445	-336.422607421875	-902.9305419921875	46.05587005615234	-245.4161987304688	-1060.1884765625	40.66023254394531	-327.0708618164062	-802.0957641601562	679.7815551757812	-574.3060302734375	nan	nan	nan	
4	0.03	-1020.910034179688	969.2322998046875	-336.0132141113281	-991.5565795898438	970.8106079101562	-456.2143859863281	-1024.4140625	1026.550537109375	-400.7715759277344	-805.2501220703125	1200.6650390625	-367.6853942871094	-1039.689086914062	1134.028686523438	-399.054931640625	-995.0892944335938	1364.426147460938	-390.8025512695312	-842.197021484375	1295.506225585938	-373.4589538574219	-1051.49755859375	1241.425537109375	-310.9736633300781	-1008.35986328125	1308.240844726562	-479.2185974121094	-909.4868774414062	1360.084716796875	-542.1644897460938	-914.3131713867188	1232.937866210938	-601.7381591796875	-898.9274291992188	1023.157165527344	-626.53759765625	-972.2716064453125	1013.540100097656	-558.9666137695312	-807.0950927734375	838.0186157226562	-583.3563232421875	-883.9053955078125	798.76123046875	-624.08056640625	-878.8535766601562	937.943115234375	-627.5479125976562	-856.9985961914062	747.0867309570312	-619.9456176757812	-795.4375610351562	760.8760375976562	-602.4917602539062	-961.2459106445312	1361.833618164062	-236.8060607910156	-983.6047973632812	1293.568481445312	-182.2513885498047	-973.0792846679688	1024.078369140625	-141.5937957763672	-1018.209289550781	1005.757080078125	-186.7438812255859	-862.9580688476562	823.9972534179688	-167.0665588378906	-942.5509033203125	796.271484375	-128.9935302734375	-968.5260009765625	969.4544067382812	-136.3677062988281	-860.5494384765625	664.7647094726562	-165.9714508056641	-850.3582153320312	731.19482421875	-143.0032653808594	-919.3433837890625	727.4544677734375	-127.734001159668	-962.3511352539062	1527.280029296875	-306.3449401855469	-803.3419799804688	1579.491088867188	-417.1589050292969	-834.265869140625	1576.625854492188	-293.6375427246094	-938.1742553710938	1527.122436523438	-464.29443359375	-860.7525024414062	894.4254150390625	-562.1187133789062	-950.784912109375	867.9615478515625	-195.0620422363281	-835.0119018554688	908.46826171875	-235.6467590332031	-784.1819458007812	923.9909057617188	-472.7917175292969	-887.4913940429688	474.6544189453125	-531.3129272460938	-858.3207397460938	630.9771118164062	-546.7498168945312	-995.7572021484375	49.79607009887695	-538.7534790039062	-929.3363647460938	331.4797058105469	-542.0474243164062	-809.974609375	38.49317932128906	-447.2160949707031	-891.2739868164062	43.39849472045898	-427.5489501953125	-885.1893920898438	45.9173583984375	-528.7928466796875	-1053.384399414062	43.68693542480469	-484.8622741699219	-971.1346435546875	481.0450744628906	-224.7285308837891	-932.8573608398438	738.6671142578125	-184.3922424316406	-1014.512939453125	49.02920532226562	-272.9245300292969	-973.7514038085938	340.7149963378906	-240.5896148681641	-809.797119140625	43.21847152709961	-294.435546875	-871.2845458984375	50.23192977905273	-336.5322875976562	-902.8855590820312	46.09480667114258	-245.5119018554688	-1060.1904296875	40.69916152954102	-327.1034851074219	-801.8262329101562	679.8597412109375	-574.8767700195312	nan	nan	nan	
